<?xml version="1.0" encoding="utf-8"?>
<!-- Generator: Adobe Illustrator 23.0.1, SVG Export Plug-In . SVG Version: 6.00 Build 0)  -->
<svg version="1.1" id="Layer_1" xmlns="http://www.w3.org/2000/svg" xmlns:xlink="http://www.w3.org/1999/xlink" x="0px" y="0px"
	 viewBox="0 0 128 84.9" style="enable-background:new 0 0 128 84.9;" xml:space="preserve">
<style type="text/css">
	.st0{fill:#2F2F2F;}
	.st1{fill:none;}
	.st2{fill:#546670;}
</style>
<path class="st0" d="M103.3,75.6c-10.9,5.7-24.4,9.2-39.3,9.2C29.2,84.9,1,65.9,1,42.4S29.2,0,64.1,0s63.1,19,63.1,42.4
	c0,5.4-1.5,10.6-4.3,15.4C122.8,57.8,119.9,67.1,103.3,75.6"/>
<g>
	<path class="st1" d="M127.1,48.1v-5.5c0,1.9-0.3,3.7-0.6,5.5C122.4,27.3,96,11.3,64.1,11.3c-32,0-58.3,16-62.4,36.8
		C1.3,46.2,1,44.4,1,42.5v5.6"/>
	<path class="st2" d="M64.2,13.2c32,0,58.2,14.1,62.3,34.9c0.4-1.8,0.6-3.7,0.6-5.5v-0.2C127,19,98.8,0,64.1,0h0C29.2,0,1,19,1,42.4
		v0.1c0,1.9,0.2,3.8,0.6,5.6C5.7,27.3,32.2,13.2,64.2,13.2z"/>
</g>
</svg>
